<?xml version="1.0" standalone="no"?>
<!DOCTYPE svg PUBLIC "-//W3C//DTD SVG 20010904//EN" "http://www.w3.org/TR/2001/REC-SVG-20010904/DTD/svg10.dtd">
<svg version="1.0" xmlns="http://www.w3.org/2000/svg" width="1200.000000pt" height="630.000000pt" viewBox="150 78.75 900.000000 472.500000" preserveAspectRatio="xMidYMid meet">
  <g transform="translate(0.000000,630.000000) scale(0.100000,-0.100000)" fill="#000000" stroke="none">
    <g class="kirbo">
      <path class="k" d="M2320 3085 l0 -505 130 0 130 0 0 125 0 125 56 63 c32 34 60 66 64 70 4 5 68 -79 141 -187 l133 -196 156 0 157 0 -198 297 -199 297 33 36 c35 37 289 320 321 358 l19 22 -151 0 -151 0 -188 -217 -188 -217 -3 217 -2 217 -130 0 -130 0 0 -505z"/>
      <path class="i" d="M3400 2970 l0 -390 125 0 125 0 0 390 0 390 -125 0 -125 0 0 -390z"/>
      <path class="i-dot" d="M3464 3706 c-49 -22 -74 -61 -74 -118 0 -91 46 -140 131 -140 84 0 131 47 131 132 0 54 -17 90 -57 116 -34 22 -94 27 -131 10z"/>
      <path class="r" d="M4257 3354 c-32 -10 -65 -32 -99 -64 -29 -28 -53 -50 -55 -50 -2 0 -3 27 -3 60 l0 60 -125 0 -125 0 0 -390 0 -390 125 0 125 0 0 198 c1 205 8 251 47 294 28 31 83 55 146 62 l57 7 0 115 c0 130 3 127 -93 98z"/>
      <path class="b" d="M4470 3115 l0 -535 130 0 130 0 0 46 0 46 29 -25 c62 -51 119 -71 211 -71 71 -1 94 4 140 25 76 35 121 77 157 146 116 219 39 499 -161 589 -118 53 -273 32 -347 -47 l-29 -31 0 196 0 196 -130 0 -130 0 0 -535z m495 35 c30 -12 71 -60 84 -99 17 -50 13 -131 -8 -177 -24 -53 -71 -86 -131 -92 -98 -9 -167 56 -177 167 -14 155 98 252 232 201z"/>
      <path class="o" d="M5703 3355 c-215 -48 -344 -244 -304 -460 39 -210 224 -341 456 -321 170 14 290 91 354 226 23 49 26 67 26 170 0 97 -4 122 -22 162 -46 100 -120 167 -226 207 -76 28 -202 35 -284 16z m205 -222 c47 -35 73 -94 73 -167 0 -135 -85 -213 -203 -187 -144 33 -175 277 -44 357 34 20 51 24 94 21 32 -2 63 -12 80 -24z"/>
    </g>
    <g class="dev">
      <path class="dot" d="M6411 2807 c-19 -7 -43 -24 -53 -38 -24 -32 -26 -110 -4 -144 42 -64 138 -71 188 -16 37 41 44 76 27 124 -23 67 -90 98 -158 74z"/>
      <path class="d" d="M6730 3085 l0 -505 240 0 c274 0 352 11 465 65 88 42 165 118 210 207 44 89 59 163 52 268 -14 246 -183 423 -435 460 -37 5 -172 10 -299 10 l-233 0 0 -505z m540 268 c60 -27 108 -76 138 -141 22 -48 24 -64 20 -145 -5 -99 -16 -132 -70 -192 -56 -65 -97 -79 -240 -83 l-128 -4 0 289 c0 159 3 293 8 297 4 5 57 6 117 4 82 -4 122 -10 155 -25z"/>
      <path class="e" d="M7830 3085 l0 -505 405 0 405 0 0 105 0 105 -272 2 -273 3 -3 92 -3 93 243 2 243 3 3 102 3 103 -243 2 -243 3 0 90 0 90 268 3 267 2 0 105 0 105 -400 0 -400 0 0 -505z"/>
      <path class="v" d="M8710 3583 c1 -5 87 -231 193 -503 l193 -495 136 -3 c103 -2 137 1 141 10 34 85 387 991 387 994 0 2 -60 4 -133 4 l-132 0 -125 -360 c-68 -198 -127 -360 -130 -360 -3 0 -61 162 -129 360 l-124 360 -138 0 c-77 0 -139 -3 -139 -7z"/>
    </g>
  </g>
</svg>
