<svg id="Logo" data-name="Logo" xmlns="http://www.w3.org/2000/svg" viewBox="0 0 586.37 87.75">
  <defs>
    <style>.cls-1{fill:#e60004;}</style>
  </defs>
  <title>Logo</title>
  <g class="kirbo">
    <path class="k" d="M38.88,60.05l-16.8,17V98.69H13.39V16.47h8.69V66.16L70.36,16.47h10L44.75,53.71l38.06,45H72.48Z" transform="translate(-13.39 -11.54)"/>
    <path class="i" d="M93.85,21.64a5.8,5.8,0,0,1-1.76-4.23,5.63,5.63,0,0,1,1.76-4.11,5.9,5.9,0,0,1,4.35-1.76,6.05,6.05,0,0,1,4.35,1.7,5.47,5.47,0,0,1,1.76,4,6.15,6.15,0,0,1-10.46,4.35ZM94,36.91h8.34V98.69H94Z" transform="translate(-13.39 -11.54)"/>
    <path class="r" d="M142.31,39.61q5.81-3.16,14.39-3.17v8.1l-2-.11q-9.75,0-15.27,6t-5.52,16.79V98.69h-8.34V36.91h8V49A20.14,20.14,0,0,1,142.31,39.61Z" transform="translate(-13.39 -11.54)"/>
    <path class="b" d="M219.3,40.37a28.29,28.29,0,0,1,11,11.1,33,33,0,0,1,4,16.33,33,33,0,0,1-4,16.33,28.57,28.57,0,0,1-11,11.16,31.35,31.35,0,0,1-15.74,4A29.08,29.08,0,0,1,189.64,96a25.36,25.36,0,0,1-9.92-9.51V98.69h-8V11.54h8.34V48.65a25.77,25.77,0,0,1,9.93-9.1,29.24,29.24,0,0,1,13.56-3.11A31.73,31.73,0,0,1,219.3,40.37Zm-4.58,48.52A21.1,21.1,0,0,0,223,80.37a25.9,25.9,0,0,0,3-12.57,25.9,25.9,0,0,0-3-12.57,21,21,0,0,0-8.28-8.51,24.61,24.61,0,0,0-23.55,0A21.26,21.26,0,0,0,183,55.23a25.9,25.9,0,0,0-3,12.57,25.9,25.9,0,0,0,3,12.57,21.35,21.35,0,0,0,8.22,8.52,24.68,24.68,0,0,0,23.55,0Z" transform="translate(-13.39 -11.54)"/>
    <path class="o" d="M260.53,95.23A29.55,29.55,0,0,1,249.26,84a31.87,31.87,0,0,1-4.11-16.21,31.9,31.9,0,0,1,4.11-16.21,29.26,29.26,0,0,1,11.27-11.16,34.46,34.46,0,0,1,32.19,0,28.93,28.93,0,0,1,11.22,11.16A32.37,32.37,0,0,1,308,67.8,32.34,32.34,0,0,1,303.94,84a29.22,29.22,0,0,1-11.22,11.22,34,34,0,0,1-32.19,0Zm27.9-6.34a20.89,20.89,0,0,0,8.16-8.52,26.32,26.32,0,0,0,2.94-12.57,26.32,26.32,0,0,0-2.94-12.57,20.8,20.8,0,0,0-8.16-8.51,24.73,24.73,0,0,0-23.61,0,21.26,21.26,0,0,0-8.22,8.51,25.9,25.9,0,0,0-3,12.57,25.9,25.9,0,0,0,3,12.57,21.35,21.35,0,0,0,8.22,8.52,24.8,24.8,0,0,0,23.61,0Z" transform="translate(-13.39 -11.54)"/>
  </g>
  <g class="dev">
    <path class="dot" class="cls-1" d="M326.72,97.4a6.31,6.31,0,0,1-1.82-4.58,6.11,6.11,0,0,1,1.82-4.52,6,6,0,0,1,4.4-1.82,6.24,6.24,0,0,1,4.47,1.82,6,6,0,0,1,1.88,4.52,6.24,6.24,0,0,1-1.88,4.58,6.1,6.1,0,0,1-4.47,1.88A5.87,5.87,0,0,1,326.72,97.4Z" transform="translate(-13.39 -11.54)"/>
    <path class="d" class="cls-1" d="M357,16.47h33.48a48.84,48.84,0,0,1,23,5.23A38.12,38.12,0,0,1,429,36.26a41.1,41.1,0,0,1,5.52,21.32A41.08,41.08,0,0,1,429,78.9a38.14,38.14,0,0,1-15.51,14.57,49,49,0,0,1-23,5.22H357Zm33,74.71a39.82,39.82,0,0,0,18.91-4.29A31.14,31.14,0,0,0,421.45,75a33.72,33.72,0,0,0,4.47-17.45,33.66,33.66,0,0,0-4.47-17.44,31.16,31.16,0,0,0-12.57-11.87A39.93,39.93,0,0,0,390,24H365.66V91.18Z" transform="translate(-13.39 -11.54)"/>
    <path class="e" class="cls-1" d="M512.13,91.18v7.51H454V16.47h56.38V24H462.68V53.24H505.2v7.4H462.68V91.18Z" transform="translate(-13.39 -11.54)"/>
    <path class="v" class="cls-1" d="M599.76,16.47,563.35,98.69h-8.58L518.36,16.47h9.39l31.48,71.42L591,16.47Z" transform="translate(-13.39 -11.54)"/>
  </g>
</svg>
