<svg id="Logo" data-name="Logo"
  xmlns="http://www.w3.org/2000/svg" viewBox="0 0 601.13 83.46">
  <title>Logo</title>
  <g class="react-tags">
    <path class="lt" class="cls-1" d="M45.63,48.2,14.18,60.34,45.63,72.48v7.35L5.94,64.15V56.53L45.63,40.85Z" transform="translate(-5.94 -16.75)"/>
  </g>
  <g class="kirbo">
    <path class="k" d="M81.07,63.8,69.73,75.31v16H60.87v-62h8.86V64l33.66-34.64h10.1L87,57.24l28.18,34.11H104.81Z" transform="translate(-5.94 -16.75)"/>
    <path class="i" d="M122.57,33.76a5.23,5.23,0,0,1-1.64-3.9,5.39,5.39,0,0,1,1.64-3.94,5.62,5.62,0,0,1,4.12-1.64,5.76,5.76,0,0,1,4.12,1.55,5.12,5.12,0,0,1,1.64,3.86,5.51,5.51,0,0,1-1.64,4,5.58,5.58,0,0,1-4.12,1.64A5.7,5.7,0,0,1,122.57,33.76Zm-.13,10.63H131v47h-8.51Z" transform="translate(-5.94 -16.75)"/>
    <path class="r" d="M161.87,46.08A23.72,23.72,0,0,1,172.41,44v8.24a16.3,16.3,0,0,0-1.95-.09q-6.92,0-10.85,4.12t-4,11.74V91.35h-8.5v-47h8.15v7.89A14.4,14.4,0,0,1,161.87,46.08Z" transform="translate(-5.94 -16.75)"/>
    <path class="b" d="M220,47a21.7,21.7,0,0,1,8.47,8.42,25,25,0,0,1,3.05,12.49,25.26,25.26,0,0,1-3.05,12.54A21.6,21.6,0,0,1,220,88.87a24.62,24.62,0,0,1-12.22,3,22.19,22.19,0,0,1-9.57-2A18.36,18.36,0,0,1,191,83.91v7.44h-8.15V25.61h8.51V51.48a18.14,18.14,0,0,1,7.09-5.63,22.61,22.61,0,0,1,9.3-1.9A24.73,24.73,0,0,1,220,47Zm-4.82,35.4a15.05,15.05,0,0,0,5.67-5.85,19,19,0,0,0,0-17.28,14.72,14.72,0,0,0-5.67-5.8,17,17,0,0,0-16.17,0,14.27,14.27,0,0,0-5.67,5.8,17.85,17.85,0,0,0-2,8.64,17.85,17.85,0,0,0,2,8.64A14.58,14.58,0,0,0,199,82.36a16.75,16.75,0,0,0,16.17,0Z" transform="translate(-5.94 -16.75)"/>
    <path class="o" d="M250.82,88.78a22.56,22.56,0,0,1-8.73-8.55,24.23,24.23,0,0,1-3.15-12.36,24.23,24.23,0,0,1,3.15-12.36,22.17,22.17,0,0,1,8.73-8.5,27.29,27.29,0,0,1,25.11,0,22.26,22.26,0,0,1,8.69,8.5,24.32,24.32,0,0,1,3.14,12.36,24.32,24.32,0,0,1-3.14,12.36,22.66,22.66,0,0,1-8.69,8.55,27,27,0,0,1-25.11,0Zm20.68-6.42a14.68,14.68,0,0,0,5.63-5.85,17.85,17.85,0,0,0,2-8.64,17.85,17.85,0,0,0-2-8.64,14.36,14.36,0,0,0-5.63-5.8,17.12,17.12,0,0,0-16.21,0,14.72,14.72,0,0,0-5.67,5.8,17.53,17.53,0,0,0-2.08,8.64,17.53,17.53,0,0,0,2.08,8.64,15.05,15.05,0,0,0,5.67,5.85,16.83,16.83,0,0,0,16.21,0Z" transform="translate(-5.94 -16.75)"/>
  </g>
  <g class="dev">
    <path class="dot" class="cls-2" d="M297.42,90.15a5.86,5.86,0,0,1-1.77-4.38,5.77,5.77,0,0,1,1.77-4.3,5.88,5.88,0,0,1,4.25-1.73,5.67,5.67,0,0,1,4.17,1.69,6.43,6.43,0,0,1,0,8.72,5.58,5.58,0,0,1-4.12,1.73A5.84,5.84,0,0,1,297.42,90.15Z" transform="translate(-5.94 -16.75)"/>
    <path class="d" class="cls-2" d="M321,29.33h26.13a37.79,37.79,0,0,1,17.46,3.9,28.71,28.71,0,0,1,11.83,10.94,31,31,0,0,1,4.2,16.17,30.93,30.93,0,0,1-4.2,16.17,28.65,28.65,0,0,1-11.83,10.94,37.79,37.79,0,0,1-17.46,3.9H321Zm25.6,54.31a28.7,28.7,0,0,0,13.25-2.92,21.12,21.12,0,0,0,8.81-8.2,23.52,23.52,0,0,0,3.1-12.18,23.52,23.52,0,0,0-3.1-12.18,21.18,21.18,0,0,0-8.81-8.2A28.83,28.83,0,0,0,346.59,37H329.85v46.6Z" transform="translate(-5.94 -16.75)"/>
    <path class="e" class="cls-2" d="M439.18,83.64v7.71h-45v-62h43.76V37H403V56.09h31.09v7.53H403v20Z" transform="translate(-5.94 -16.75)"/>
    <path class="v" class="cls-2" d="M506.51,29.33l-27.2,62h-8.77l-27.29-62h9.57l22.33,51,22.5-50.95Z" transform="translate(-5.94 -16.75)"/>
  </g>
  <g class="react-tags">
    <path class="slash" class="cls-1" d="M557,16.75h7.71l-29.24,83.46h-7.71Z" transform="translate(-5.94 -16.75)"/>
    <path class="gt" class="cls-1" d="M607.07,56.53v7.62l-39.7,15.68V72.48l31.55-12.14L567.37,48.2V40.85Z" transform="translate(-5.94 -16.75)"/>
  </g>
</svg>
